<?xml version="1.0" standalone="no"?>
<!DOCTYPE svg PUBLIC "-//W3C//DTD SVG 20010904//EN"
 "http://www.w3.org/TR/2001/REC-SVG-20010904/DTD/svg10.dtd">
<svg version="1.0" xmlns="http://www.w3.org/2000/svg"
 width="600.000000pt" height="600.000000pt" viewBox="0 0 600.000000 600.000000"
 preserveAspectRatio="xMidYMid meet">
<metadata>
Created by potrace 1.14, written by Peter Selinger 2001-2017
</metadata>
<g transform="translate(0.000000,600.000000) scale(0.100000,-0.100000)"
fill="#000000" stroke="none">
<path d="M2905 5963 c-337 -54 -457 -102 -680 -273 -54 -42 -173 -163 -247
-252 -46 -55 -100 -118 -120 -139 -20 -22 -40 -49 -43 -62 -4 -12 -24 -56 -45
-97 -54 -106 -77 -171 -95 -275 -9 -49 -18 -102 -21 -116 -4 -16 1 -40 12 -60
15 -28 19 -59 19 -164 1 -79 6 -139 13 -152 7 -12 12 -47 12 -77 0 -54 -1 -56
-34 -70 -18 -8 -37 -19 -41 -26 -4 -7 4 -5 18 5 58 38 124 10 148 -63 15 -46
15 -231 0 -260 -6 -12 -8 -22 -2 -22 5 0 12 -7 15 -16 3 -8 2 -13 -2 -10 -6 4
-7 -11 -3 -76 0 -12 4 -19 7 -15 4 3 13 -1 21 -9 11 -11 12 -20 4 -42 l-11
-27 3 27 c3 19 0 25 -10 21 -14 -6 -10 -32 11 -68 13 -23 16 -333 3 -352 -5
-7 -29 -13 -55 -14 -40 0 -44 -2 -23 -10 13 -5 39 -7 57 -3 37 7 33 15 54
-112 15 -95 60 -241 104 -339 20 -44 39 -102 43 -130 5 -37 8 -44 12 -27 6 21
8 21 27 8 11 -8 26 -33 34 -55 7 -23 17 -41 21 -41 5 0 6 -6 3 -13 -3 -8 2
-20 11 -27 8 -7 15 -19 15 -26 0 -8 5 -14 10 -14 6 0 10 -16 10 -35 0 -41 20
-91 30 -74 5 7 9 5 13 -5 4 -9 -2 -24 -15 -35 l-21 -20 21 2 c11 0 18 5 16 9
-3 4 2 8 10 8 18 0 22 -25 6 -35 -5 -3 -15 -15 -21 -27 -9 -17 -8 -19 9 -14
21 7 48 -17 38 -33 -4 -6 10 -19 31 -30 21 -11 45 -25 53 -31 12 -10 11 -11
-7 -7 -28 6 -29 -4 -3 -28 11 -10 20 -13 20 -7 0 7 9 12 20 12 11 0 20 -4 20
-10 0 -5 -7 -7 -15 -4 -8 4 -15 1 -15 -5 0 -6 8 -11 18 -11 20 -1 54 -24 46
-32 -3 -4 3 -5 13 -4 10 0 17 -5 16 -11 -2 -7 2 -13 9 -13 9 0 9 -3 0 -12 -17
-17 -15 -26 6 -24 9 0 16 -5 15 -12 -2 -6 2 -12 8 -12 6 0 23 -8 37 -19 15
-10 36 -21 47 -23 11 -2 19 -10 18 -16 -2 -7 8 -12 22 -12 14 0 28 -7 31 -15
4 -8 10 -12 15 -9 10 6 63 -32 65 -47 1 -5 2 -11 3 -14 0 -2 12 0 26 5 21 8
27 6 41 -15 13 -20 24 -25 51 -23 19 1 37 -3 41 -9 4 -6 27 -14 50 -16 37 -5
48 -1 78 25 19 17 40 28 49 24 9 -3 19 3 25 14 7 13 18 18 33 16 12 -3 22 -5
22 -6 0 -2 24 -8 65 -14 19 -4 29 -4 23 0 -7 3 -13 10 -13 15 0 6 5 7 10 4 6
-3 10 -1 10 6 0 8 10 9 31 5 20 -4 39 0 55 10 13 9 35 14 49 12 14 -3 26 0 29
8 3 8 11 14 19 14 7 0 30 15 51 34 20 19 49 36 64 38 19 2 27 8 26 21 -1 9 2
18 7 18 5 1 15 2 22 3 7 1 11 11 9 25 -2 14 0 21 6 17 6 -3 25 7 43 24 27 24
33 36 31 64 -2 23 2 35 13 39 8 4 19 17 24 29 l9 23 12 -27 c7 -16 17 -28 22
-28 15 0 8 30 -12 47 -19 16 -19 17 13 48 19 18 33 43 35 59 2 23 -1 26 -12
17 -10 -9 -15 -8 -20 4 -4 10 1 15 14 15 11 0 20 4 20 9 0 5 11 12 25 15 20 5
23 11 20 36 -2 17 0 30 5 30 4 0 11 10 14 23 6 21 7 21 20 -9 8 -17 23 -33 34
-36 18 -5 19 -4 6 21 -36 68 -4 241 81 447 57 137 95 273 95 340 l0 36 43 -6
c36 -5 38 -4 15 5 -14 5 -28 16 -31 23 -3 7 -1 57 3 112 4 54 4 104 0 109 -5
6 2 28 16 50 29 49 30 58 4 50 -22 -7 -26 5 -9 22 7 7 8 17 1 29 -5 11 -12 53
-16 94 -3 41 -3 69 0 62 3 -7 17 -24 31 -38 21 -21 24 -32 20 -61 -5 -26 -3
-33 4 -26 6 6 11 22 11 34 0 26 -22 162 -27 167 -2 2 -10 -9 -18 -24 l-14 -27
-7 28 c-4 15 -3 59 1 99 4 39 7 77 6 85 -2 23 75 120 100 126 12 2 33 6 47 8
14 3 -3 5 -38 6 -55 1 -63 3 -59 19 3 9 11 42 17 72 6 30 28 118 47 195 35
138 35 142 29 290 -7 197 -14 251 -37 302 -10 24 -19 46 -19 50 -1 11 -42 92
-65 128 -16 25 -80 101 -167 198 -9 10 -27 39 -40 63 -12 24 -28 44 -33 44 -6
0 -19 19 -28 43 -13 31 -28 47 -56 60 -24 12 -47 34 -60 58 -23 40 -92 89
-126 89 -10 0 -28 8 -39 18 -38 33 -164 71 -336 101 -161 27 -251 31 -355 14z
m369 -419 c28 -3 58 -7 68 -10 9 -3 42 -9 73 -14 53 -9 61 -14 129 -84 51 -54
89 -83 129 -101 54 -24 74 -45 42 -45 -8 0 -15 -4 -15 -9 0 -5 7 -11 15 -15 8
-3 15 -13 15 -21 0 -9 -4 -14 -9 -11 -5 4 -20 2 -33 -3 -20 -9 -19 -10 17 -12
22 0 49 -1 60 0 11 0 15 -2 8 -5 -7 -3 -9 -12 -6 -20 5 -12 -7 -19 -29 -15
-16 2 -7 -16 17 -37 14 -12 25 -26 25 -32 0 -5 7 -10 15 -10 8 0 15 -7 15 -15
0 -8 -5 -15 -11 -15 -6 0 -4 -7 5 -15 8 -8 19 -15 25 -15 13 0 26 -43 14 -47
-6 -2 -8 -20 -6 -41 6 -43 5 -69 0 -97 -2 -11 3 -31 13 -45 31 -47 53 -115 53
-165 0 -32 1 -38 4 -17 2 18 9 30 14 26 5 -3 7 -10 3 -15 -3 -6 1 -16 10 -22
14 -11 15 -15 3 -31 -12 -17 -18 -17 -50 -7 -21 7 -35 16 -32 21 8 13 -103
120 -124 120 -6 0 -27 11 -47 25 -21 14 -40 22 -43 18 -8 -10 -122 -12 -115
-2 2 4 -6 6 -18 3 -34 -7 -110 -16 -132 -15 -11 0 -32 -9 -48 -21 -16 -11 -32
-17 -35 -14 -4 3 -1 6 6 6 7 0 10 4 7 9 -4 5 -20 -5 -38 -22 -21 -22 -33 -28
-36 -19 -2 8 -14 -2 -28 -25 -30 -49 -31 -67 -1 -59 73 21 196 36 292 34 l110
-1 -120 -7 c-168 -10 -235 -29 -307 -87 -20 -17 -26 -19 -15 -7 25 29 21 39
-8 20 -27 -18 -55 -21 -55 -7 0 5 -13 12 -28 16 -34 7 -207 -11 -232 -25 -14
-7 -23 -6 -34 6 -9 9 -14 19 -12 22 2 4 -8 8 -22 9 -15 0 -35 12 -45 25 -10
12 -34 40 -53 61 -19 21 -34 43 -34 47 0 12 -28 26 -68 33 -31 6 -32 6 -21
-16 11 -19 10 -20 -2 -10 -8 6 -29 11 -47 11 -18 -1 -38 4 -44 10 -9 9 -18 6
-37 -11 -13 -12 -21 -16 -17 -9 12 20 -5 14 -25 -10 -11 -11 -19 -16 -19 -10
0 7 -12 12 -27 12 -21 0 -24 -3 -13 -10 17 -11 10 -21 -18 -23 -11 0 -18 -5
-16 -9 3 -4 -5 -8 -17 -8 -28 0 -20 -9 15 -16 14 -2 36 -8 50 -13 13 -6 77
-11 142 -12 66 -1 140 -5 166 -9 39 -6 48 -4 51 9 3 13 5 12 12 -4 5 -11 13
-24 19 -28 6 -5 0 -6 -14 -2 -14 3 -92 8 -175 11 -117 4 -167 2 -225 -11 -41
-9 -95 -20 -120 -25 -25 -5 -76 -21 -115 -35 -120 -46 -155 -55 -155 -40 0 21
62 175 70 175 4 0 7 -25 6 -55 0 -34 5 -59 13 -67 11 -11 13 -7 8 25 -15 98
80 325 183 437 117 128 290 299 348 343 122 92 266 162 350 171 30 3 57 8 62
11 4 3 25 7 45 11 21 3 47 10 59 14 20 8 93 6 210 -6z m325 -71 c21 -9 47 -29
57 -44 10 -15 20 -26 23 -23 7 6 41 -27 41 -40 0 -6 -10 0 -21 14 l-21 25 5
-27 c5 -33 2 -34 -43 -7 -43 26 -85 64 -113 103 l-21 29 28 -7 c15 -4 45 -14
65 -23z m35 -745 c-4 -7 -9 -6 -14 1 -5 9 -10 8 -20 -4 -16 -19 -30 -19 -30
-1 0 8 10 16 23 18 29 5 48 -2 41 -14z m-958 -100 c-11 -7 -37 22 -30 34 3 4
13 0 22 -10 11 -10 14 -20 8 -24z m1024 0 c0 -5 -21 -8 -47 -8 -27 0 -43 4
-36 8 15 9 83 9 83 0z m-62 -44 c104 -20 113 -24 106 -36 -4 -7 -9 -6 -14 2
-5 9 -9 9 -14 1 -4 -6 -12 -11 -17 -11 -6 0 -8 4 -5 9 3 5 -8 11 -24 13 -22 3
-35 -2 -50 -19 -13 -15 -32 -23 -52 -24 l-33 -1 31 -9 c17 -5 37 -16 44 -24
11 -14 10 -14 -13 -6 -17 7 -28 7 -32 1 -4 -6 0 -10 8 -10 8 0 17 -10 20 -22
7 -24 0 -38 -11 -23 -13 19 -174 9 -285 -18 -129 -30 -151 -28 -141 17 3 17
11 37 17 44 5 7 7 15 4 19 -11 10 -36 -60 -46 -128 l-10 -64 3 66 c4 67 42
162 56 139 4 -6 19 3 35 20 62 65 266 96 423 64z m-1033 -19 c27 -2 51 -9 53
-15 2 -5 7 -8 11 -6 4 3 12 1 19 -3 19 -12 -58 -88 -88 -87 -16 1 -24 -4 -22
-13 2 -8 -3 -11 -13 -8 -8 4 -15 2 -15 -3 0 -6 -16 -10 -35 -10 -45 0 -220
-45 -265 -69 -42 -21 -56 -71 -21 -71 12 0 21 -6 21 -13 0 -8 15 -13 40 -13
38 -1 51 8 30 21 -18 11 -11 53 12 69 22 15 23 15 42 -21 25 -49 43 -62 87
-63 39 0 70 25 88 73 6 16 17 27 24 25 19 -7 38 -51 27 -62 -16 -16 -12 -24
13 -28 12 -2 30 4 39 12 10 8 28 15 40 15 19 0 23 5 21 28 -1 15 2 27 8 27 5
0 9 5 9 11 0 6 11 20 25 31 14 11 25 27 26 36 0 12 3 10 9 -6 10 -24 8 -61 -9
-177 -13 -87 -13 -87 -2 -81 13 8 -23 -87 -48 -128 -27 -43 -79 -89 -134 -118
-36 -20 -57 -23 -147 -23 -58 0 -124 6 -147 13 -78 24 -175 125 -208 220 -10
26 -20 54 -23 62 -3 8 -5 17 -4 20 0 3 -3 38 -8 78 -7 65 -5 78 15 120 41 84
109 128 238 157 58 13 118 13 292 0z m469 -21 c9 -3 16 -14 16 -23 0 -14 -2
-14 -10 -1 -9 13 -12 12 -25 -4 -18 -23 -40 -10 -29 17 6 18 22 21 48 11z
m-79 -50 c13 -6 14 -9 3 -16 -10 -7 -10 -10 5 -19 9 -5 17 -17 17 -25 0 -9 7
-22 15 -30 8 -9 15 -26 15 -38 0 -129 170 -473 215 -436 9 7 27 3 65 -17 58
-30 164 -44 240 -31 71 13 164 63 211 116 47 53 94 146 83 163 -5 8 -3 9 6 4
10 -6 12 -4 7 8 -4 10 -2 17 4 17 6 0 8 7 5 16 -3 8 -2 13 3 10 12 -8 22 33
14 63 -4 18 -3 22 7 16 10 -6 11 -2 6 19 -3 14 -4 26 -2 26 3 0 22 -15 42 -34
l37 -34 -25 -49 c-21 -42 -22 -51 -10 -62 8 -8 12 -24 9 -37 -2 -13 -1 -21 3
-19 5 3 9 -45 9 -107 1 -61 4 -115 7 -119 3 -5 2 -15 -3 -21 -4 -7 -6 -25 -5
-39 2 -17 -3 -29 -12 -32 -9 -4 -16 -11 -16 -16 0 -6 7 -8 16 -4 14 5 16 2 11
-18 -17 -66 -19 -109 -7 -109 9 0 9 -4 2 -12 -5 -7 -15 -51 -22 -98 -6 -46
-18 -93 -26 -104 -8 -11 -14 -25 -14 -31 0 -5 6 -1 12 10 11 18 13 15 24 -29
12 -48 12 -51 -12 -74 -13 -14 -24 -32 -25 -41 -1 -9 -4 -5 -9 9 -7 24 -7 24
-18 -10 -5 -19 -11 -28 -12 -20 -1 8 -9 -16 -19 -55 l-18 -70 -10 45 c-9 38
-12 41 -18 23 -4 -12 -13 -19 -20 -17 -8 4 -15 -3 -17 -18 -2 -13 -7 -21 -13
-18 -5 3 -8 11 -7 19 2 7 -2 11 -10 9 -9 -4 -12 -19 -10 -48 3 -40 2 -43 -13
-30 -15 12 -16 11 -9 -15 5 -20 4 -26 -5 -21 -7 5 -11 -2 -11 -21 -1 -27 -1
-27 -15 -9 -14 18 -15 18 -15 2 0 -10 -5 -14 -11 -10 -8 4 -9 -1 -5 -17 l6
-24 -11 23 c-14 26 -26 28 -31 5 -6 -27 -38 45 -37 82 2 40 -7 89 -20 113 -15
28 -14 35 5 28 15 -6 15 -4 3 10 -8 9 -12 27 -11 40 3 19 -1 24 -17 24 -13 0
-21 6 -21 18 0 14 2 15 10 2 12 -19 13 -8 1 23 -6 14 -19 28 -30 32 -11 3 -18
11 -16 18 3 7 -22 27 -56 46 -34 18 -58 28 -54 21 4 -7 -7 -4 -25 6 -18 10
-36 28 -40 39 -5 11 -9 16 -9 11 -1 -5 -12 3 -26 18 -14 15 -25 25 -25 22 0
-3 -10 3 -22 14 -13 10 -32 26 -42 33 -19 14 -18 15 12 22 28 6 62 37 62 57 0
3 -9 10 -20 13 -11 3 -20 13 -20 20 0 18 -39 45 -64 45 -10 0 -42 -11 -70 -24
-84 -40 -118 -42 -176 -12 -34 18 -65 26 -100 26 -46 0 -53 -3 -68 -30 -9 -16
-20 -30 -24 -30 -15 0 -8 -27 12 -45 23 -21 28 -4 5 18 -12 13 -12 16 8 21 21
5 71 1 127 -10 25 -6 24 -6 -8 -20 -27 -11 -32 -18 -27 -34 5 -15 3 -18 -9
-14 -14 5 -53 -27 -151 -123 -12 -13 -29 -23 -37 -23 -9 0 -21 -7 -28 -15 -11
-13 -14 -13 -26 2 -12 17 -15 16 -44 -12 -26 -25 -33 -27 -41 -15 -9 12 -10
12 -5 -2 3 -10 1 -18 -4 -18 -18 0 -48 -33 -43 -46 3 -8 0 -14 -7 -14 -9 0
-11 -11 -6 -40 5 -31 3 -40 -8 -40 -9 0 -12 -7 -9 -19 3 -10 0 -22 -6 -25 -8
-5 -8 -13 -1 -27 7 -13 7 -19 0 -19 -5 0 -10 -13 -10 -28 0 -28 -59 -179 -60
-153 0 11 -4 9 -14 -4 -8 -11 -12 -23 -10 -27 3 -5 0 -8 -6 -8 -6 0 -10 -8 -8
-17 2 -10 -5 -26 -14 -35 -22 -22 -28 -22 -29 0 -1 16 -2 16 -6 0 -2 -10 -12
-18 -21 -17 -11 0 -12 2 -4 6 6 2 12 12 12 20 0 12 -3 13 -14 4 -11 -9 -15 -7
-20 11 -5 19 -8 21 -16 8 -7 -11 -8 -5 -3 20 6 32 5 34 -10 21 -15 -12 -17
-11 -17 2 0 9 -5 19 -11 23 -8 5 -10 -1 -7 -20 3 -14 -1 -34 -8 -43 -12 -16
-13 -15 -14 15 0 17 -4 32 -10 32 -5 0 -10 8 -10 18 0 14 -2 15 -10 2 -5 -8
-10 -11 -10 -7 0 4 -9 3 -20 -3 -17 -9 -20 -8 -20 9 0 28 -11 52 -21 45 -5 -3
-9 -1 -9 5 0 5 -5 22 -12 38 -6 15 -10 39 -9 53 1 19 -1 21 -8 11 -14 -21 -37
32 -44 105 -4 33 -9 69 -12 80 -6 18 -6 18 5 1 6 -9 16 -15 21 -11 6 4 2 15
-11 29 -12 13 -21 31 -20 41 4 37 0 65 -9 60 -5 -3 -9 20 -10 52 -2 78 -8 176
-15 242 -9 93 -8 228 3 390 17 234 23 260 61 260 30 0 47 -32 69 -131 12 -52
34 -122 50 -155 37 -79 119 -167 184 -198 103 -50 273 -53 368 -6 22 10 39 15
39 10 0 -4 -7 -10 -15 -14 -8 -3 -15 -10 -15 -16 0 -14 49 11 72 36 35 40 117
196 153 290 38 101 41 138 19 226 -5 23 -1 30 27 47 34 21 73 26 104 15z
m1069 -79 c14 -38 23 -71 21 -73 -5 -6 -46 89 -52 123 -9 46 3 27 31 -50z
m-216 30 c-3 -3 -9 2 -12 12 -6 14 -5 15 5 6 7 -7 10 -15 7 -18z m-1973 -75
c-9 -18 -25 -35 -36 -37 -10 -3 -19 -13 -19 -22 -1 -14 -29 -74 -29 -61 -1 19
30 95 59 145 32 55 35 58 38 33 2 -15 -4 -41 -13 -58z m2108 33 c-7 -18 -20
-16 -27 4 -4 9 -1 20 6 24 15 9 28 -8 21 -28z m-126 -10 c-3 -10 -5 -4 -5 12
0 17 2 24 5 18 2 -7 2 -21 0 -30z m-474 -40 c7 -37 63 -93 93 -93 13 0 41 17
65 40 23 22 46 40 51 40 17 0 7 -40 -14 -54 -12 -9 -18 -16 -13 -16 5 0 -2 -8
-15 -17 -14 -10 -28 -17 -32 -15 -16 4 -8 -19 8 -25 12 -5 13 -7 3 -14 -10 -6
-4 -12 20 -22 19 -8 39 -14 45 -12 90 19 106 27 112 61 3 18 12 38 20 45 8 6
14 23 14 38 1 31 21 61 42 61 9 0 21 -13 28 -30 15 -36 27 -38 40 -7 7 16 9 1
6 -53 -8 -142 -67 -255 -169 -321 -89 -58 -198 -72 -304 -40 -2 1 -6 1 -9 0
-4 0 -10 3 -13 8 -3 4 -32 25 -63 47 -34 23 -71 59 -91 90 -35 52 -82 165 -73
174 3 3 8 -1 10 -9 13 -41 15 -39 9 6 -6 49 -5 50 14 33 18 -16 45 -27 30 -12
-3 4 1 13 9 22 12 11 29 13 82 8 46 -4 62 -3 52 4 -8 5 -23 10 -32 10 -10 0
-18 5 -18 11 0 5 5 7 10 4 6 -3 10 -1 10 5 0 12 48 60 60 60 4 0 10 -12 13
-27z m137 3 c0 -3 -4 -8 -10 -11 -5 -3 -10 -1 -10 4 0 6 5 11 10 11 6 0 10 -2
10 -4z m-380 -88 c0 -19 -2 -20 -10 -8 -13 19 -13 30 0 30 6 0 10 -10 10 -22z
m-1313 -495 c-3 -10 -5 -2 -5 17 0 19 2 27 5 18 2 -10 2 -26 0 -35z m56 -243
c-7 -27 -33 -48 -33 -26 0 9 5 16 10 16 6 0 10 7 10 15 0 8 4 15 9 15 5 0 7
-9 4 -20z m1098 -51 c-11 -12 -23 -20 -25 -18 -9 8 6 49 15 43 5 -3 9 5 10 18
l0 23 11 -22 c8 -17 6 -26 -11 -44z m121 -40 c10 -5 18 -7 18 -3 0 3 7 0 16
-7 9 -7 21 -14 28 -15 29 -5 64 -26 99 -58 60 -57 43 -77 -26 -31 -20 14 -37
23 -37 21 0 -3 -12 -1 -26 4 -19 8 -29 6 -39 -4 -9 -9 -36 -14 -74 -14 -32 0
-68 -3 -79 -6 -11 -4 -23 -2 -27 4 -3 5 -17 7 -30 4 -13 -3 -41 0 -62 7 -37
12 -37 12 -13 22 14 6 29 9 33 8 5 -1 6 3 2 9 -11 17 -31 12 -130 -36 -53 -25
-98 -44 -100 -42 -8 8 9 68 19 67 6 -1 24 3 39 9 16 7 33 12 39 12 6 0 16 8
23 17 11 14 15 15 29 4 13 -11 18 -10 31 3 9 8 22 13 30 10 7 -3 30 2 50 12
30 14 38 15 45 4 7 -11 14 -11 41 2 33 16 67 15 101 -3z m-1202 -13 c0 -3 -4
-8 -10 -11 -5 -3 -10 -1 -10 4 0 6 5 11 10 11 6 0 10 -2 10 -4z m581 -69 c-10
-9 -11 -8 -5 6 3 10 9 15 12 12 3 -3 0 -11 -7 -18z m419 -118 c76 -13 64 -13
166 -4 66 6 87 5 117 -10 32 -15 36 -21 31 -44 -4 -17 -3 -22 4 -13 7 10 11
10 21 -2 9 -11 25 -13 61 -9 53 6 99 -17 100 -49 0 -10 5 -18 10 -18 6 0 10
-6 10 -13 0 -8 9 -24 20 -37 11 -13 20 -30 20 -39 -1 -13 -2 -13 -11 2 -11 18
-11 18 -23 0 -15 -21 -30 -70 -29 -95 0 -21 -2 -22 -29 -7 -18 10 -19 8 -13
-11 10 -31 -14 -22 -40 16 -11 16 -26 29 -32 28 -7 -1 -18 -2 -24 -3 -6 0 -9
-8 -5 -16 3 -8 1 -15 -4 -15 -6 0 -10 5 -10 10 0 6 -7 10 -16 10 -11 0 -14 5
-10 16 6 16 -20 51 -31 40 -8 -7 -32 24 -33 42 0 8 5 10 13 6 6 -4 4 2 -6 13
-21 24 -95 41 -199 47 -99 5 -119 0 -157 -34 -25 -23 -31 -37 -31 -69 0 -30 4
-41 15 -41 8 0 14 -3 14 -7 -1 -5 2 -23 6 -41 5 -23 10 -29 16 -21 5 8 7 -1 6
-22 -1 -25 -6 -35 -14 -32 -7 3 -13 1 -13 -4 0 -15 38 -13 44 3 3 8 10 14 16
14 6 0 8 -6 4 -12 -5 -9 -2 -8 9 1 15 12 17 11 14 -7 -2 -12 -7 -25 -12 -29
-4 -5 -5 -2 -1 5 4 7 1 12 -7 12 -20 0 -29 -37 -11 -44 8 -3 14 0 14 6 0 6 2
9 5 6 4 -3 -5 -23 -20 -43 -14 -21 -25 -42 -25 -47 0 -5 -5 -6 -11 -2 -7 4 -7
10 -1 16 6 6 8 17 5 26 -5 11 -3 13 7 7 10 -6 12 -4 7 9 -4 10 -7 22 -7 27 0
5 -5 9 -11 9 -5 0 -8 -4 -4 -9 11 -19 -18 -24 -32 -6 -8 12 -13 14 -13 6 0 -8
9 -22 20 -31 12 -10 18 -24 14 -33 -7 -19 -34 -31 -34 -15 0 6 -9 3 -20 -7
-20 -18 -35 -14 -35 8 -1 7 4 16 10 20 6 5 1 7 -11 4 -12 -2 -29 0 -38 5 -10
6 -16 5 -16 -2 0 -6 -4 -8 -10 -5 -5 3 -10 1 -10 -6 0 -7 -3 -10 -6 -7 -3 4
-1 15 5 27 6 11 7 22 2 25 -4 3 -6 18 -4 33 5 27 5 27 -11 8 -18 -24 -20 -42
-5 -47 7 -2 5 -9 -5 -17 -11 -10 -16 -10 -16 -2 0 7 -5 9 -12 4 -19 -11 -39
-13 -32 -2 3 5 11 7 17 3 7 -3 1 4 -13 15 -14 11 -20 21 -15 21 6 0 10 13 11
30 1 16 -3 27 -8 24 -4 -3 -11 2 -14 10 -3 9 -10 14 -14 11 -5 -3 -11 -1 -15
4 -3 6 -12 8 -19 5 -10 -4 -12 3 -10 23 4 30 -5 68 -13 59 -9 -9 -31 19 -25
33 4 10 1 12 -9 6 -10 -7 -9 -1 4 18 10 16 13 27 6 27 -7 0 -8 7 -4 18 4 9 8
23 9 30 1 7 15 27 30 43 15 16 24 33 21 39 -4 6 -3 9 2 8 12 -3 57 13 64 24 3
4 22 11 43 13 20 3 56 15 79 27 73 39 114 44 217 27z m-893 -241 c-3 -8 -6 -5
-6 6 -1 11 2 17 5 13 3 -3 4 -12 1 -19z m83 -44 c0 -14 -3 -14 -15 -4 -8 7
-15 14 -15 16 0 2 7 4 15 4 8 0 15 -7 15 -16z m248 -19 c-3 -3 -9 2 -12 12 -6
14 -5 15 5 6 7 -7 10 -15 7 -18z m1092 5 c0 -5 -2 -10 -4 -10 -3 0 -8 5 -11
10 -3 6 -1 10 4 10 6 0 11 -4 11 -10z m-445 -138 c-3 -3 -11 0 -18 7 -9 10 -8
11 6 5 10 -3 15 -9 12 -12z m-21 -11 c11 -12 14 -21 7 -26 -6 -3 -11 -11 -11
-17 0 -7 6 -6 15 2 10 8 15 9 15 2 0 -13 -40 -37 -40 -25 0 4 -5 1 -10 -7 -6
-9 -10 -10 -10 -3 0 6 -3 19 -6 27 -5 12 -2 15 10 10 11 -4 16 -1 16 12 0 9
-3 15 -6 11 -8 -8 -33 16 -27 26 8 13 29 8 47 -12z m59 -66 c-3 -9 -8 -14 -10
-11 -3 3 -2 9 2 15 9 16 15 13 8 -4z m19 -857 c-7 -7 -12 -8 -12 -2 0 14 12
26 19 19 2 -3 -1 -11 -7 -17z"/>
<path d="M3530 5280 c20 -13 33 -13 25 0 -3 6 -14 10 -23 10 -15 0 -15 -2 -2
-10z"/>
<path d="M3577 5283 c-15 -14 -6 -19 24 -15 22 3 27 7 18 13 -17 10 -33 11
-42 2z"/>
<path d="M2190 4662 c0 -7 -7 -12 -15 -12 -8 0 -15 -5 -15 -12 0 -6 3 -8 7 -5
3 4 12 2 19 -4 18 -15 32 17 15 34 -8 8 -11 8 -11 -1z"/>
<path d="M2093 4588 c-2 -21 8 -23 25 -6 17 17 15 27 -6 25 -10 0 -19 -9 -19
-19z"/>
<path d="M2356 4234 c-5 -12 -2 -15 10 -10 8 3 18 6 20 6 3 0 2 5 -1 10 -9 15
-22 12 -29 -6z"/>
<path d="M2375 4191 c-8 -14 8 -21 34 -14 17 4 19 8 9 14 -17 11 -35 11 -43 0z"/>
<path d="M1960 3271 c0 -7 -3 -10 -7 -8 -5 3 -7 -9 -7 -26 3 -53 6 -54 14 -7
4 25 6 47 4 49 -2 2 -4 -1 -4 -8z"/>
<path d="M2383 3218 c-15 -19 -23 -48 -15 -48 4 0 13 14 19 30 12 32 11 37 -4
18z"/>
<path d="M2101 3034 c0 -11 3 -14 6 -6 3 7 2 16 -1 19 -3 4 -6 -2 -5 -13z"/>
<path d="M3590 3039 c0 -5 5 -7 10 -4 6 3 10 8 10 11 0 2 -4 4 -10 4 -5 0 -10
-5 -10 -11z"/>
<path d="M2122 3020 c0 -14 2 -19 5 -12 2 6 2 18 0 25 -3 6 -5 1 -5 -13z"/>
<path d="M2150 3011 c0 -5 5 -13 10 -16 6 -3 10 -2 10 4 0 5 -4 13 -10 16 -5
3 -10 2 -10 -4z"/>
<path d="M3399 4224 c19 -8 52 -17 75 -20 l41 -5 -24 18 c-15 11 -45 19 -75
20 l-51 1 34 -14z"/>
<path d="M4300 4218 c0 -2 14 -16 32 -33 25 -24 29 -25 19 -8 -9 18 -51 51
-51 41z"/>
<path d="M1604 4145 c-10 -24 -13 -68 -12 -152 l2 -118 5 130 c4 77 11 139 19
153 7 12 10 22 7 22 -3 0 -13 -16 -21 -35z"/>
<path d="M4361 4140 c0 -8 4 -24 9 -35 5 -13 9 -14 9 -5 0 8 -4 24 -9 35 -5
13 -9 14 -9 5z"/>
<path d="M1636 4124 c-10 -26 4 -88 17 -75 6 6 18 11 27 11 9 0 25 6 36 14 19
14 19 15 -5 40 -28 29 -66 34 -75 10z"/>
<path d="M4283 4133 c-15 -6 -17 -30 -3 -35 6 -2 13 -28 16 -58 3 -30 12 -66
18 -78 11 -21 14 -15 26 64 12 82 11 88 -6 101 -18 13 -30 15 -51 6z"/>
<path d="M4230 4079 c0 -9 10 -24 21 -35 22 -19 22 -19 11 1 -6 11 -16 27 -22
35 -8 13 -10 13 -10 -1z"/>
<path d="M4382 3985 c-1 -27 -5 -68 -7 -90 -5 -35 -4 -37 5 -16 6 14 9 54 7
90 -3 58 -3 60 -5 16z"/>
<path d="M4316 3915 c-3 -8 -1 -15 4 -15 6 0 10 7 10 15 0 8 -2 15 -4 15 -2 0
-6 -7 -10 -15z"/>
<path d="M1603 3830 c0 -25 2 -35 4 -22 2 12 2 32 0 45 -2 12 -4 2 -4 -23z"/>
<path d="M4362 3820 c0 -14 2 -19 5 -12 2 6 2 18 0 25 -3 6 -5 1 -5 -13z"/>
<path d="M4345 3740 c-4 -23 -5 -43 -2 -46 2 -3 7 14 11 37 4 23 5 44 2 46 -2
2 -7 -14 -11 -37z"/>
<path d="M1611 3724 c1 -27 5 -60 9 -74 5 -15 6 4 3 45 -7 82 -13 99 -12 29z"/>
<path d="M4322 3599 c-7 -38 -11 -97 -10 -132 1 -40 2 -48 5 -22 1 22 8 80 14
128 13 107 8 124 -9 26z"/>
<path d="M4272 3625 c-17 -37 -14 -45 4 -12 9 16 14 31 11 33 -2 2 -9 -7 -15
-21z"/>
<path d="M1631 3549 c1 -24 5 -57 10 -74 5 -19 6 -4 2 40 -6 79 -14 101 -12
34z"/>
<path d="M1650 3428 c0 -26 44 -121 65 -138 15 -12 14 -9 -3 15 -12 17 -31 55
-42 85 -10 30 -19 47 -20 38z"/>
<path d="M4275 3340 c-11 -16 -33 -35 -49 -42 -16 -6 -24 -14 -18 -16 22 -7
104 69 90 83 -2 2 -12 -9 -23 -25z"/>
<path d="M2033 2570 c0 -25 2 -35 4 -22 2 12 2 32 0 45 -2 12 -4 2 -4 -23z"/>
<path d="M1943 2415 c-3 -9 -3 -18 -1 -21 3 -3 8 4 11 16 6 23 -1 27 -10 5z"/>
<path d="M2020 2346 c0 -25 13 -80 29 -123 15 -43 34 -102 41 -131 6 -28 16
-55 21 -58 20 -12 7 85 -20 151 -15 39 -31 88 -35 110 -14 80 -18 95 -27 95
-5 0 -9 -20 -9 -44z"/>
<path d="M1923 2280 c0 -25 2 -35 4 -22 2 12 2 32 0 45 -2 12 -4 2 -4 -23z"/>
<path d="M3860 2166 c-5 -15 -10 -33 -10 -41 0 -8 -5 -17 -11 -20 -6 -4 -8
-13 -5 -21 9 -22 -37 -104 -58 -104 -15 0 -17 -5 -13 -30 5 -22 -4 -52 -34
-117 -22 -48 -49 -107 -60 -130 -10 -23 -23 -45 -29 -48 -5 -3 -10 -13 -10
-20 0 -8 -14 -37 -31 -65 -29 -48 -31 -70 -6 -70 16 1 195 327 230 419 26 71
63 258 53 269 -3 2 -10 -7 -16 -22z"/>
<path d="M2419 1986 c14 -14 26 -24 29 -22 2 3 15 1 28 -4 13 -5 26 -5 29 -1
4 8 -21 18 -50 21 -5 1 -21 8 -35 17 l-25 16 24 -27z"/>
</g>
</svg>
